<svg width="19" height="21" viewBox="0 0 19 21" fill="none" xmlns="http://www.w3.org/2000/svg">
    <path d="M11.6898 16.264C10.9782 16.264 10.3768 16.0183 9.88546 15.527C9.39416 15.0357 9.1485 14.4343 9.1485 13.7227C9.1485 13.0112 9.39416 12.4098 9.88546 11.9185C10.3768 11.4272 10.9782 11.1815 11.6898 11.1815C12.4013 11.1815 13.0027 11.4272 13.494 11.9185C13.9853 12.4098 14.231 13.0112 14.231 13.7227C14.231 14.4343 13.9853 15.0357 13.494 15.527C13.0027 16.0183 12.4013 16.264 11.6898 16.264ZM2.033 20.33C1.47393 20.33 0.995153 20.1311 0.596685 19.7333C0.198895 19.3348 0 18.8561 0 18.297V4.066C0 3.50692 0.198895 3.02849 0.596685 2.6307C0.995153 2.23223 1.47393 2.033 2.033 2.033H3.0495V1.0165C3.0495 0.728492 3.14675 0.486903 3.34124 0.291735C3.5364 0.0972451 3.77799 0 4.066 0C4.35401 0 4.5956 0.0972451 4.79076 0.291735C4.98526 0.486903 5.0825 0.728492 5.0825 1.0165V2.033H13.2145V1.0165C13.2145 0.728492 13.3121 0.486903 13.5073 0.291735C13.7017 0.0972451 13.943 0 14.231 0C14.519 0 14.7603 0.0972451 14.9548 0.291735C15.1499 0.486903 15.2475 0.728492 15.2475 1.0165V2.033H16.264C16.8231 2.033 17.3018 2.23223 17.7003 2.6307C18.0981 3.02849 18.297 3.50692 18.297 4.066V18.297C18.297 18.8561 18.0981 19.3348 17.7003 19.7333C17.3018 20.1311 16.8231 20.33 16.264 20.33H2.033ZM2.033 18.297H16.264V8.132H2.033V18.297ZM2.033 6.099H16.264V4.066H2.033V6.099ZM2.033 6.099V4.066V6.099Z" fill="#1DA1F2"/>
</svg>